<svg id="Layer_1" enable-background="new 0 0 512 512" height="512" viewBox="0 0 512 512" width="512" xmlns="http://www.w3.org/2000/svg"><g><path d="m240.195 187.521 36.805-21.25-36.805-21.25z"/><path d="m439 243.501c7.215 0 14.231.867 20.954 2.492v-213.492c0-8.284-6.716-15-15-15h-378c-8.284 0-15 6.716-15 15v213.515c6.751-1.639 13.798-2.515 21.046-2.515 49.184 0 89.198 40.014 89.198 89.198 0 .938-.02 1.872-.048 2.803h4.653c-.029-.931-.048-1.865-.048-2.803 0-49.185 40.014-89.198 89.199-89.198s89.199 40.014 89.199 89.198c0 .938-.02 1.872-.048 2.803h4.746c-.029-.931-.048-1.865-.048-2.803-.001-49.184 40.013-89.198 89.197-89.198zm-124.5-64.239-81.805 47.229c-2.32 1.34-4.911 2.01-7.5 2.01-2.59 0-5.179-.67-7.5-2.01-4.641-2.68-7.5-7.631-7.5-12.99v-94.46c0-5.359 2.859-10.311 7.5-12.99 4.641-2.68 10.359-2.68 15 0l81.805 47.23c4.641 2.68 7.5 7.631 7.5 12.99s-2.859 10.311-7.5 12.991z"/><path d="m73 391.898c32.642 0 59.198-26.557 59.198-59.199s-26.556-59.198-59.198-59.198-59.199 26.557-59.199 59.198c.001 32.643 26.557 59.199 59.199 59.199z"/><path d="m379.802 332.699c0 32.643 26.557 59.199 59.199 59.199s59.198-26.557 59.198-59.199-26.556-59.198-59.198-59.198-59.199 26.557-59.199 59.198z"/><path d="m255.954 421.898c-24.096 0-45.986-9.608-62.054-25.189-6.931 11.162-10.946 24.313-10.946 38.39v44.399c0 8.284 6.716 15 15 15h116c8.284 0 15-6.716 15-15v-44.398c0-14.077-4.016-27.228-10.946-38.39-16.067 15.581-37.958 25.188-62.054 25.188z"/><path d="m315.153 332.699c0-32.642-26.557-59.198-59.199-59.198s-59.199 26.557-59.199 59.198c0 32.643 26.557 59.199 59.199 59.199s59.199-26.556 59.199-59.199z"/><path d="m73 421.898c-24.096 0-45.987-9.608-62.054-25.189-6.93 11.162-10.946 24.314-10.946 38.391v44.399c0 8.284 6.716 15 15 15h116c8.284 0 15-6.716 15-15v-44.399c0-14.077-4.016-27.228-10.946-38.39-16.067 15.58-37.958 25.188-62.054 25.188z"/><path d="m501.054 396.71c-16.067 15.581-37.958 25.189-62.053 25.189-24.096 0-45.987-9.608-62.054-25.189-6.931 11.161-10.947 24.313-10.947 38.39v44.399c0 8.284 6.716 15 15 15h116c8.284 0 15-6.716 15-15v-44.399c0-14.077-4.016-27.229-10.946-38.39z"/></g></svg>