<svg id="Layer_1" data-name="Layer 1" xmlns="http://www.w3.org/2000/svg" viewBox="0 0 41.13145 41.13145"><path d="M43.15469,4.53846H6.959A2.46789,2.46789,0,0,0,4.49112,7.00635V43.202A2.4679,2.4679,0,0,0,6.959,45.66992H43.15469A2.46789,2.46789,0,0,0,45.62258,43.202V7.00635A2.46789,2.46789,0,0,0,43.15469,4.53846Zm.82263,2.46789V24.28156h-2.8792l-5.84067-7.7903a2.46789,2.46789,0,0,0-3.94862,0L25.87948,23.7304V6.18372H43.15469A.82262.82262,0,0,1,43.97732,7.00635ZM39.04155,24.28156H27.52474l5.1003-6.80314a.8226.8226,0,0,1,1.3162,0ZM6.959,6.18372H24.23422V24.28156H6.13638V7.00635A.82263.82263,0,0,1,6.959,6.18372ZM6.13638,43.202V25.92682H24.23422V44.02466H6.959A.82264.82264,0,0,1,6.13638,43.202Zm37.01831.82263H25.87948V25.92682H43.97732V43.202A.82263.82263,0,0,1,43.15469,44.02466ZM38.21892,16.05527a3.29052,3.29052,0,1,0-3.29052-3.29052A3.29052,3.29052,0,0,0,38.21892,16.05527Zm0-4.93578a1.64526,1.64526,0,1,1-1.64526,1.64526A1.64525,1.64525,0,0,1,38.21892,11.11949Zm-28.792,0a.82262.82262,0,0,1,.82263-.82262h9.87155a.82263.82263,0,1,1,0,1.64525H10.24953A.82262.82262,0,0,1,9.4269,11.11949Zm0,4.11315a.82262.82262,0,0,1,.82263-.82263h9.87155a.82263.82263,0,1,1,0,1.64526H10.24953A.82262.82262,0,0,1,9.4269,15.23264Zm0,4.11314a.82262.82262,0,0,1,.82263-.82262H15.1853a.82263.82263,0,1,1,0,1.64525H10.24953A.82262.82262,0,0,1,9.4269,19.34578ZM19.84138,33.50323l-7.21445-3.60312a1.64526,1.64526,0,0,0-2.3774,1.47251v7.20623a1.64526,1.64526,0,0,0,2.3774,1.47251l7.21445-3.60312a1.64526,1.64526,0,0,0,0-2.945Zm-7.94659,5.07562V31.37262L19.101,34.97573ZM34.9284,29.21733a5.7584,5.7584,0,0,0-5.7584,5.7584v4.11315a1.64525,1.64525,0,0,0,1.64525,1.64526h.82263a1.64526,1.64526,0,0,0,1.64526-1.64526V37.44362a1.64526,1.64526,0,0,0-1.64526-1.64526h-.82263v-.82263a4.11315,4.11315,0,0,1,8.2263,0v.82263h-.82263a1.64526,1.64526,0,0,0-1.64526,1.64526v1.64526a1.64526,1.64526,0,0,0,1.64526,1.64526h.82263a1.64525,1.64525,0,0,0,1.64525-1.64526V34.97573A5.7584,5.7584,0,0,0,34.9284,29.21733Zm-3.29052,8.22629v1.64526h-.82263V37.44362Zm7.40367,1.64526h-.82263V37.44362h.82263Z" transform="translate(-4.49112 -4.53846)"/></svg>